<svg width="137" height="230" viewBox="0 0 137 230" fill="none" xmlns="http://www.w3.org/2000/svg">
<path d="M121.123 116.739C118.082 112.65 115.042 108.561 111.966 104.506C109.694 106.673 107.737 108.561 105.466 110.762C102.425 106.149 99.6291 102.375 96.0642 97.2021C91.6956 100.417 87.3618 103.598 82.9932 106.813L47.0303 107.407C44.0596 104.926 41.054 102.479 38.0833 99.998C34.7631 104.227 31.4429 108.456 28.1577 112.685C27.1442 110.972 26.0957 109.26 25.0822 107.512C21.5872 111.322 18.1273 115.131 14.6323 118.941L30.8488 169.407H93.443L121.123 116.739Z" fill="#DDD0B3"/>
<path d="M81.1045 93.6023H49.5802C48.6366 102.759 47.3085 111.916 45.561 120.968L59.2961 150.779H73.5554L85.578 123.1C83.6208 113.349 82.153 103.493 81.1045 93.6023Z" fill="#A3D82E"/>
<path d="M79.8116 130.858C77.2953 119.36 75.6876 107.617 74.9886 95.874L55.417 95.4546C55.4869 106.359 53.8443 117.263 50.5591 127.678L62.2321 150.884H66.7406L79.8116 130.858Z" fill="#FFDB80"/>
<path d="M106.128 42.9258C100.711 31.6721 94.001 12.8344 66.7405 12.8344C39.48 12.8344 32.7698 31.6721 27.3526 42.9258C23.4733 50.9991 8.65474 66.901 28.2264 82.1739C34.657 87.1716 45.9806 90.5268 45.9806 90.5268C59.8555 98.2855 73.5906 98.2855 87.5004 90.5268C87.5004 90.5268 98.824 87.1716 105.255 82.1739C124.826 66.901 110.043 50.9991 106.128 42.9258Z" fill="#A3D82E"/>
<path d="M80.6504 56.1017C80.4058 56.1017 80.1612 56.0667 79.9165 55.9619C78.903 55.5425 78.4486 54.3892 78.868 53.4106C80.5456 49.3914 83.8658 46.5256 87.5005 45.8965C91.2401 45.2674 95.0845 47.0498 97.5659 50.4748C98.195 51.3486 97.9853 52.5718 97.1116 53.2009C96.2378 53.83 95.0146 53.6203 94.3855 52.7465C92.7778 50.5098 90.3664 49.3565 88.1296 49.7409C85.823 50.1253 83.6211 52.1175 82.4678 54.8785C82.1533 55.6473 81.4193 56.1017 80.6504 56.1017Z" fill="black"/>
<path d="M52.8314 56.1017C52.0625 56.1017 51.3285 55.6473 51.014 54.8785C49.8607 52.1175 47.6589 50.1253 45.3522 49.7409C43.0805 49.3565 40.704 50.5098 39.0963 52.7465C38.4672 53.6203 37.244 53.83 36.3702 53.2009C35.4965 52.5718 35.2868 51.3486 35.9159 50.4748C38.3973 47.0149 42.2417 45.2674 45.9813 45.8965C49.651 46.4906 52.9712 49.3565 54.6138 53.4106C55.0332 54.4241 54.5439 55.5425 53.5653 55.9619C53.3207 56.0667 53.076 56.1017 52.8314 56.1017Z" fill="black"/>
<path d="M114.099 58.4083C101.412 51.9777 90.5078 64.2099 83.6577 63.6158C80.7919 63.3711 76.7028 57.5695 66.7422 57.5695C56.7817 57.5695 52.6926 63.3362 49.8268 63.6158C42.9767 64.2449 32.0725 51.9777 19.3859 58.4083C17.1142 65.6428 17.7433 73.9957 28.2281 82.1389C34.6588 87.1367 45.9823 90.4918 45.9823 90.4918C59.8572 98.2505 73.5923 98.2505 87.5021 90.4918C87.5021 90.4918 98.8257 87.1367 105.256 82.1389C115.741 73.9957 116.37 65.6428 114.099 58.4083Z" fill="#FFDB80"/>
<path d="M66.7409 98.2855C59.5763 98.2855 52.3418 96.2934 45.2121 92.3092C43.5695 91.8199 33.2594 88.5347 27.0385 83.6767C19.2797 77.6305 15.7149 70.6406 16.4838 62.8819C17.1128 56.4162 20.5379 50.7195 23.2639 46.1411C24.2075 44.5684 25.0464 43.2054 25.6055 42.0171C25.99 41.2133 26.3744 40.3745 26.7938 39.5357C32.1411 28.1073 40.2143 10.8423 66.7758 10.8423C93.3373 10.8423 101.411 28.1073 106.758 39.5357C107.177 40.4094 107.562 41.2482 107.946 42.0171C108.505 43.1704 109.344 44.5684 110.288 46.1411C113.014 50.7195 116.439 56.3813 117.068 62.8819C117.837 70.6406 114.272 77.6305 106.513 83.6767C100.292 88.5347 89.9822 91.7849 88.3396 92.3092C81.1051 96.2585 73.8705 98.2855 66.7409 98.2855ZM66.7409 14.7916C42.6608 14.7916 35.5312 30.0644 30.2888 41.2482C29.8694 42.122 29.4849 42.9607 29.1005 43.7646C28.4714 45.0926 27.5627 46.5955 26.5841 48.2031C21.3766 56.9055 14.2121 68.7883 29.415 80.6012C35.4613 85.3193 46.4004 88.6046 46.5402 88.6395C46.68 88.6745 46.8198 88.7444 46.9246 88.8143C60.2403 96.2585 73.2065 96.2585 86.5222 88.8143C86.662 88.7444 86.7669 88.6745 86.9067 88.6395C87.0115 88.6046 97.9856 85.3193 104.032 80.6012C119.235 68.7883 112.07 56.8706 106.863 48.2031C105.919 46.5955 105.01 45.0926 104.346 43.7646C103.962 42.9607 103.577 42.122 103.158 41.2482C97.9506 30.0644 90.8209 14.7916 66.7409 14.7916Z" fill="black"/>
<path d="M99.3134 71.6541C103.058 71.6541 106.094 69.1506 106.094 66.0622C106.094 62.9739 103.058 60.4704 99.3134 60.4704C95.5688 60.4704 92.5332 62.9739 92.5332 66.0622C92.5332 69.1506 95.5688 71.6541 99.3134 71.6541Z" fill="#F76390"/>
<path d="M34.1679 71.6541C37.9125 71.6541 40.948 69.1505 40.948 66.0622C40.948 62.9739 37.9125 60.4703 34.1679 60.4703C30.4233 60.4703 27.3877 62.9739 27.3877 66.0622C27.3877 69.1505 30.4233 71.6541 34.1679 71.6541Z" fill="#F76390"/>
<path d="M81.3504 64.1051C81.0708 64.1051 80.7912 64.0352 80.5465 63.8604C71.25 57.2899 62.1981 57.2899 52.9016 63.8604C52.2725 64.3148 51.3988 64.14 50.9445 63.5109C50.4901 62.8818 50.6649 62.0081 51.294 61.5538C61.5341 54.3193 71.914 54.3193 82.1542 61.5538C82.7833 62.0081 82.9231 62.8818 82.5037 63.5109C82.2241 63.8954 81.8047 64.1051 81.3504 64.1051Z" fill="black"/>
<path d="M56.1528 77.6305C48.1844 77.6305 43.9206 73.1919 43.7458 73.0171C43.2216 72.458 43.2565 71.5842 43.8157 71.025C44.3749 70.5008 45.2486 70.5357 45.7729 71.0949C45.9476 71.2697 49.4425 74.8345 56.1179 74.8345C62.6883 74.8345 65.4493 71.025 65.5542 70.8503C66.0085 70.2212 66.8823 70.0814 67.5114 70.5008C68.1405 70.9551 68.3152 71.7939 67.8609 72.423C67.756 72.6677 64.2261 77.6305 56.1528 77.6305Z" fill="black"/>
<path d="M77.331 77.6305C69.2577 77.6305 65.7278 72.6676 65.588 72.4579C65.1337 71.8289 65.3084 70.9551 65.9375 70.5008C66.5666 70.0464 67.4403 70.2212 67.8947 70.8503C67.9995 70.9901 70.7955 74.8345 77.331 74.8345C84.0413 74.8345 87.5362 71.2347 87.676 71.0949C88.2002 70.5357 89.1089 70.5008 89.6331 71.06C90.1923 71.5842 90.2273 72.458 89.7031 73.0171C89.5633 73.1919 85.2994 77.6305 77.331 77.6305Z" fill="black"/>
<path d="M58.569 67.9485C59.8945 67.2761 60.6221 66.0473 60.1942 65.2038C59.7663 64.3604 58.345 64.2217 57.0195 64.8941C55.6941 65.5665 54.9665 66.7953 55.3944 67.6387C55.8222 68.4822 57.2436 68.6209 58.569 67.9485Z" fill="#231F20"/>
<path d="M78.0868 67.6178C78.5147 66.7744 77.787 65.5455 76.4616 64.8731C75.1362 64.2008 73.7148 64.3395 73.2869 65.1829C72.8591 66.0264 73.5867 67.2552 74.9121 67.9276C76.2376 68.5999 77.6589 68.4613 78.0868 67.6178Z" fill="#231F20"/>
<path d="M45.561 122.925C45.4212 122.925 45.3163 122.925 45.1765 122.89C44.1281 122.68 43.4291 121.667 43.6388 120.583C45.3513 111.601 46.7143 102.479 47.6579 93.3926C47.7628 92.3092 48.7414 91.5403 49.7898 91.6451C50.8733 91.75 51.6421 92.7286 51.5373 93.777C50.5937 102.969 49.2307 112.23 47.4832 121.317C47.3084 122.261 46.4697 122.925 45.561 122.925Z" fill="black"/>
<path d="M85.5791 125.057C84.6704 125.057 83.8317 124.428 83.6569 123.484C81.6998 113.698 80.1969 103.738 79.1834 93.812C79.0785 92.7286 79.8474 91.7849 80.9309 91.6801C82.0143 91.5752 82.9579 92.3441 83.0628 93.4276C84.0763 103.213 85.5442 113.069 87.5013 122.715C87.711 123.764 87.012 124.812 85.9636 125.022C85.8238 125.022 85.684 125.057 85.5791 125.057Z" fill="black"/>
<path d="M50.5597 129.041C50.4199 129.041 50.2801 129.006 50.1403 128.971C49.4063 128.726 48.9869 127.957 49.2316 127.224C52.4819 116.948 54.1245 106.254 54.0196 95.4546C54.0196 94.6857 54.6487 94.0566 55.4176 94.0566C56.1865 94.0566 56.8156 94.6857 56.8156 95.4546C56.8855 106.534 55.2429 117.543 51.8877 128.097C51.713 128.691 51.1538 129.041 50.5597 129.041Z" fill="black"/>
<path d="M79.8125 132.256C79.1834 132.256 78.5892 131.802 78.4494 131.173C75.9331 119.605 74.2905 107.757 73.6265 95.9789C73.5915 95.21 74.1856 94.5459 74.9545 94.511C75.7234 94.476 76.3875 95.0702 76.4224 95.8391C77.1214 107.512 78.729 119.185 81.2105 130.614C81.3852 131.383 80.8959 132.116 80.127 132.291C80.0222 132.256 79.9173 132.256 79.8125 132.256Z" fill="black"/>
<path d="M67.1261 109.26C63.1069 109.26 59.0528 108.735 55.1734 107.722C54.4395 107.512 53.9852 106.778 54.1948 106.009C54.4045 105.275 55.1385 104.821 55.9074 104.996C62.1633 106.638 68.8386 106.883 75.1994 105.695C75.9683 105.555 76.7022 106.044 76.842 106.813C76.9818 107.582 76.4925 108.316 75.7237 108.456C72.8578 108.98 69.9919 109.26 67.1261 109.26Z" fill="black"/>
<path d="M65.4839 125.826C61.1153 125.826 56.6068 125.371 52.0983 124.463C51.3294 124.323 50.8402 123.589 51.0149 122.82C51.1547 122.051 51.8887 121.562 52.6576 121.736C61.29 123.484 69.8876 123.484 77.5065 121.736C78.2754 121.562 79.0093 122.051 79.1841 122.785C79.3588 123.554 78.8695 124.288 78.1356 124.463C74.1164 125.371 69.8526 125.826 65.4839 125.826Z" fill="black"/>
<path d="M124.303 112.72L113.224 129.67L94.8758 107.757L79.9175 132.396L66.8814 122.331L53.4259 135.821L40.2151 110.762L20.1891 133.864L12.3605 112.685C-17.2066 184.68 21.3424 227.703 68.3493 227.703C115.356 227.738 153.87 184.715 124.303 112.72Z" fill="#FEF3D7"/>
<path d="M68.3139 229.695C56.8855 229.695 45.7017 227.144 36.0557 222.356C26.0252 217.358 17.8121 210.158 11.661 201.002C4.49644 190.307 0.58211 177.551 0.0578702 163.082C-0.501319 147.389 2.99361 130.194 10.4728 111.986C10.7873 111.252 11.4863 110.762 12.3251 110.762C13.1289 110.762 13.8628 111.287 14.1424 112.056L20.8178 130.124L38.6769 109.504C39.0963 109.015 39.7253 108.77 40.3894 108.84C41.0185 108.91 41.6126 109.295 41.8922 109.854L53.8798 132.536L65.4481 120.933C66.147 120.234 67.2305 120.164 68.0343 120.758L79.3579 129.46L93.1978 106.673C93.5124 106.149 94.1065 105.8 94.7356 105.73C95.3646 105.695 95.9938 105.939 96.3782 106.429L113.014 126.315L122.66 111.601C123.045 111.007 123.778 110.658 124.477 110.727C125.211 110.797 125.84 111.252 126.085 111.916C133.564 130.124 137.059 147.319 136.5 163.012C135.976 177.446 132.096 190.202 124.897 200.932C118.746 210.088 110.568 217.288 100.502 222.286C90.9261 227.144 79.7773 229.695 68.3139 229.695ZM12.2552 118.242C0.372423 150.011 1.24615 178.459 14.9113 198.835C26.4097 215.96 45.8415 225.781 68.3139 225.781C90.7863 225.781 110.218 215.96 121.716 198.835C135.556 178.215 136.29 149.242 123.883 116.983L114.866 130.753C114.517 131.278 113.958 131.592 113.329 131.627C112.7 131.662 112.105 131.417 111.721 130.928L95.155 111.112L81.5946 133.445C81.315 133.934 80.8258 134.248 80.2666 134.353C79.7074 134.458 79.1482 134.318 78.7288 133.969L67.0557 124.987L54.8235 137.254C54.3691 137.708 53.775 137.918 53.1459 137.813C52.5168 137.708 51.9926 137.359 51.713 136.8L39.8302 114.292L21.6565 135.262C21.2022 135.786 20.5032 136.031 19.8392 135.891C19.1752 135.751 18.581 135.297 18.3713 134.633L12.2552 118.242Z" fill="black"/>
<path d="M110.182 34.0487C106.407 21.6417 97.0407 11.052 85.1929 5.80962C73.3451 0.567218 59.2256 0.741968 47.5175 6.29891C35.8095 11.8559 26.7227 22.6552 23.2627 35.1321L44.1275 29.016L56.5694 41.2832L67.7881 26.1851L78.7622 37.8232L91.2391 24.9269L110.182 34.0487Z" fill="#FEF3D7"/>
<path d="M56.6047 43.2403C56.0805 43.2403 55.5912 43.0306 55.2417 42.6811L43.6036 31.2178L23.8223 36.9844C23.1233 37.1941 22.3893 36.9844 21.9 36.4951C21.4108 36.0058 21.2011 35.2719 21.3758 34.5729C24.9756 21.5368 34.4468 10.2831 46.6791 4.48154C58.9114 -1.32004 73.625 -1.49479 85.9971 3.99225C98.3691 9.4793 108.12 20.4883 112.034 33.4545C112.244 34.1885 112.034 34.9923 111.44 35.5165C110.846 36.0058 110.007 36.1456 109.308 35.7961L91.6589 27.3035L80.1606 39.1862C79.7761 39.5707 79.2868 39.7803 78.7626 39.7803C78.2383 39.7803 77.7141 39.5707 77.3646 39.1513L67.9982 29.2257L58.1774 42.4365C57.8279 42.8908 57.3387 43.1704 56.7445 43.2054C56.7096 43.2403 56.6746 43.2403 56.6047 43.2403ZM44.1628 27.0938C44.6521 27.0938 45.1763 27.3035 45.5258 27.6529L56.395 38.3474L66.2507 25.0667C66.6002 24.6123 67.1245 24.2978 67.7186 24.2978C68.2778 24.2629 68.8719 24.4725 69.2564 24.8919L78.8325 35.0272L89.8765 23.5988C90.4706 23.0047 91.3793 22.8299 92.1482 23.2144L106.722 30.2042C102.423 20.2786 94.35 11.9956 84.4593 7.62698C73.1008 2.59428 59.6104 2.76903 48.3916 8.08132C38.2563 12.8694 30.218 21.7465 26.3037 32.2313L43.6385 27.1636C43.7783 27.0937 43.988 27.0938 44.1628 27.0938Z" fill="black"/>
<path d="M14.5972 120.863C14.1429 120.863 13.6536 120.688 13.2691 120.339C12.4653 119.605 12.4304 118.381 13.1294 117.578L23.5792 106.149C23.9986 105.695 24.5927 105.45 25.2218 105.52C25.8509 105.59 26.3751 105.939 26.6897 106.464L28.2973 109.19L36.4755 98.7398C36.79 98.3204 37.2793 98.0409 37.8036 98.0059C38.3278 97.936 38.8521 98.1107 39.2714 98.4602L48.2185 105.87C49.0572 106.568 49.1621 107.792 48.4631 108.63C47.7641 109.469 46.5409 109.574 45.7021 108.875L38.2928 102.759L29.5905 113.873C29.2061 114.397 28.577 114.677 27.9129 114.607C27.2838 114.572 26.6897 114.222 26.3402 113.663L24.6277 110.762L15.9602 120.269C15.6807 120.653 15.1564 120.863 14.5972 120.863Z" fill="black"/>
<path d="M121.122 118.696C120.528 118.696 119.934 118.416 119.549 117.927L111.721 107.442L106.828 112.16C106.409 112.545 105.849 112.755 105.255 112.685C104.661 112.615 104.172 112.3 103.822 111.811C102.005 109.05 100.222 106.534 98.3701 103.877C97.4615 102.619 96.5528 101.326 95.6091 99.9281L84.1458 108.351C83.272 108.98 82.0488 108.805 81.4197 107.932C80.7906 107.058 80.9654 105.835 81.8391 105.205L94.9101 95.5944C95.3295 95.2799 95.8888 95.1401 96.378 95.2449C96.9023 95.3498 97.3566 95.6294 97.6711 96.0487C99.0691 98.0758 100.327 99.8932 101.585 101.606C103.018 103.633 104.416 105.625 105.814 107.687L110.637 103.074C111.057 102.689 111.581 102.479 112.14 102.549C112.699 102.584 113.224 102.864 113.538 103.318L122.695 115.55C123.324 116.424 123.149 117.647 122.31 118.277C121.926 118.591 121.507 118.696 121.122 118.696Z" fill="black"/>
</svg>
